<svg xmlns="http://www.w3.org/2000/svg" width="56" height="56" viewBox="0 0 56 56">
  <defs>
    <linearGradient id="g" x1="0" x2="0" y1="0" y2="1">
      <stop offset="0%" stop-color="#4f8cff"/>
      <stop offset="100%" stop-color="#3478f6"/>
    </linearGradient>
  </defs>
  <g fill="none" fill-rule="evenodd">
    <path d="M28 2C16.402 2 7 11.402 7 23c0 14.25 17.63 29.9 19.088 31.2a2 2 0 0 0 2.824 0C31.37 52.9 49 37.25 49 23 49 11.402 39.598 2 28 2z" fill="url(#g)"/>
    <g transform="translate(16 12)" fill="#fff">
      <circle cx="12" cy="8" r="6"/>
      <path d="M12 18c6.075 0 11 3.582 11 8v1a1 1 0 0 1-1 1H2a1 1 0 0 1-1-1v-1c0-4.418 4.925-8 11-8z"/>
    </g>
    <circle cx="28" cy="23" r="21" stroke="rgba(255,255,255,0.4)" stroke-width="2" fill="none"/>
  </g>
</svg>
